<?xml version="1.0" encoding="UTF-8"?>
<svg version="1.1" xmlns="http://www.w3.org/2000/svg" width="142" height="138">
<path d="M0 0 C1.53672363 0.64316162 1.53672363 0.64316162 3.10449219 1.29931641 C6.55583707 2.74683274 9.96512587 4.27002891 13.375 5.8125 C14.51710938 6.32103516 15.65921875 6.82957031 16.8359375 7.35351562 C37.7122892 16.7122892 37.7122892 16.7122892 41 20 C40.84765625 22.01977539 40.84765625 22.01977539 40 24 C38.11208537 24.89220527 36.21494599 25.77121028 34.27197266 26.53613281 C30.60337363 27.99158818 27.06046882 29.46587177 24 32 C22.65225066 35.63892322 22.58707002 38.19805345 22.8515625 42.046875 C23.00617421 45.12283425 22.62575594 46.44346776 21 49 C16.35072143 47.91138843 11.8359855 46.3857003 7.2890625 44.9375 C-6.93879345 40.88205412 -21.91553724 42.13065705 -35 49 C-36.32 49 -37.64 49 -39 49 C-40.06723961 45.53777385 -40.10173486 42.35960734 -40.0625 38.75 C-40.05347656 37.67234375 -40.04445313 36.5946875 -40.03515625 35.484375 C-40.02355469 34.66453125 -40.01195313 33.8446875 -40 33 C-33.80961387 29.82469605 -27.52107408 26.98481162 -21.125 24.25 C-20.17625 23.83878906 -19.2275 23.42757813 -18.25 23.00390625 C-17.34507813 22.61589844 -16.44015625 22.22789063 -15.5078125 21.828125 C-14.68941895 21.4765332 -13.87102539 21.12494141 -13.02783203 20.76269531 C-11 20 -11 20 -9 20 C-9.495 18.02 -9.495 18.02 -10 16 C-16.8062747 16.46840935 -22.34633978 19.12856291 -28.5 21.9375 C-41.51244733 27.82725689 -41.51244733 27.82725689 -47 29 C-47.66 28.67 -48.32 28.34 -49 28 C-49.02888146 31.31248187 -49.04675799 34.62493167 -49.0625 37.9375 C-49.07087891 38.88302734 -49.07925781 39.82855469 -49.08789062 40.80273438 C-49.09111328 41.70185547 -49.09433594 42.60097656 -49.09765625 43.52734375 C-49.10289307 44.35999756 -49.10812988 45.19265137 -49.11352539 46.05053711 C-49.21643292 48.00516798 -49.21643292 48.00516798 -48 49 C-48.00595463 50.50056678 -48.0556031 52.00102696 -48.125 53.5 C-48.19191998 58.16432281 -47.35038814 61.76822284 -45.65625 66.08984375 C-45 68 -45 68 -45 71 C-49.90126952 73.45063476 -56.75242023 71.87459663 -62 71 C-61.855625 70.41734375 -61.71125 69.8346875 -61.5625 69.234375 C-60.19464892 63.19303272 -59.86983535 57.65649286 -60.125 51.46875 C-60 49 -60 49 -58 47 C-57.82533652 44.27347347 -57.76734844 41.66135452 -57.8125 38.9375 C-57.81604492 38.16833252 -57.81958984 37.39916504 -57.82324219 36.60668945 C-57.86597786 32.56346743 -58.09924603 28.68594707 -58.75 24.6875 C-59 21 -59 21 -57.41723633 18.97216797 C-54.61055333 16.68225935 -51.86301893 15.27872285 -48.57421875 13.7578125 C-47.63724907 13.3215303 -47.63724907 13.3215303 -46.68135071 12.87643433 C-45.35776451 12.262265 -44.03220644 11.65232959 -42.70483398 11.04638672 C-40.72767843 10.14335089 -38.75702032 9.22730772 -36.78710938 8.30859375 C-33.53243993 6.7974007 -30.25895794 5.33335224 -26.9755249 3.88586426 C-24.97774653 2.99002111 -23.00298447 2.0527519 -21.02587891 1.11230469 C-13.18521199 -2.49473867 -8.06338719 -3.94779708 0 0 Z " fill="#0F1330" transform="translate(64,4)"/>
<path d="M0 0 C2 2 2 2 2.23046875 4.9765625 C2.0184182 22.9815818 2.0184182 22.9815818 -1 26 C-3.4375 26.4375 -3.4375 26.4375 -6 26 C-7.66015625 23.47265625 -7.66015625 23.47265625 -9 21 C-9.91495239 21.91495239 -9.91495239 21.91495239 -10.84838867 22.84838867 C-30 42 -30 42 -32.5793457 44.57055664 C-34.67937701 46.67821287 -36.75201481 48.80696701 -38.8125 50.953125 C-40.20812705 52.38561767 -41.60396492 53.81790497 -43 55.25 C-44.04800781 56.34828125 -44.04800781 56.34828125 -45.1171875 57.46875 C-45.80039063 58.16484375 -46.48359375 58.8609375 -47.1875 59.578125 C-47.79980469 60.21137695 -48.41210938 60.84462891 -49.04296875 61.49707031 C-51.40458845 63.31070939 -53.04666586 63.75169792 -56 64 C-58.45983465 63.06375088 -60.58017885 62.11274325 -62.875 60.875 C-63.49197754 60.5545874 -64.10895508 60.2341748 -64.74462891 59.90405273 C-69.12022175 57.58915961 -73.11324504 55.0538789 -77 52 C-80.67689304 53.5278414 -82.90198808 55.75627506 -85.625 58.625 C-87.04510127 60.12058838 -88.49594968 61.58886398 -90 63 C-90.66 63 -91.32 63 -92 63 C-92.33 63.99 -92.66 64.98 -93 66 C-93.66 66 -94.32 66 -95 66 C-95.495 67.485 -95.495 67.485 -96 69 C-96.66 69 -97.32 69 -98 69 C-98.226875 69.556875 -98.45375 70.11375 -98.6875 70.6875 C-100.37550036 73.66159588 -102.46676517 75.72008865 -105 78 C-105.66 78 -106.32 78 -107 78 C-107 78.66 -107 79.32 -107 80 C-108.875 82.125 -108.875 82.125 -111 84 C-111.66 84 -112.32 84 -113 84 C-113.33 84.99 -113.66 85.98 -114 87 C-115.56640625 88.578125 -115.56640625 88.578125 -117.5625 90.25 C-118.27535156 90.85457031 -118.98820312 91.45914063 -119.72265625 92.08203125 C-120.47417969 92.71496094 -121.22570312 93.34789063 -122 94 C-123.50267448 95.30943715 -125.00281393 96.62179103 -126.5 97.9375 C-127.66666667 98.95833333 -128.83333333 99.97916667 -130 101 C-132.91517292 99.92598892 -134.77810176 99.22189824 -137 97 C-136.77969994 92.14453341 -135.46352321 89.84078788 -132.06274414 86.46337891 C-131.22840347 85.62296051 -130.39406281 84.78254211 -129.53443909 83.91665649 C-128.17354408 82.58505997 -128.17354408 82.58505997 -126.78515625 81.2265625 C-125.85908066 80.3028183 -124.93300507 79.3790741 -123.97886658 78.42733765 C-122.02348672 76.47810887 -120.06015151 74.53741235 -118.09008789 72.60302734 C-115.56151535 70.11988315 -113.04861337 67.62158779 -110.54081059 65.11748695 C-108.14901824 62.73117666 -105.74837188 60.35389729 -103.34765625 57.9765625 C-102.44241714 57.0766861 -101.53717804 56.17680969 -100.60450745 55.24966431 C-99.76701462 54.42815887 -98.92952179 53.60665344 -98.06665039 52.76025391 C-96.9586483 51.66821152 -96.9586483 51.66821152 -95.82826233 50.55410767 C-94 49 -94 49 -92 49 C-92 48.34 -92 47.68 -92 47 C-90.35546875 45.34375 -90.35546875 45.34375 -88.1875 43.5 C-87.47980469 42.8915625 -86.77210937 42.283125 -86.04296875 41.65625 C-81.53301887 38 -81.53301887 38 -78.4375 38 C-74.33783095 39.192631 -71.21273418 41.10592269 -67.61328125 43.3671875 C-63.82667102 45.73311138 -59.91396669 47.85458229 -56 50 C-48.28290546 43.2599219 -40.99428984 36.15005122 -33.76489258 28.89526367 C-31.91277675 27.03770408 -30.05526446 25.1856577 -28.19726562 23.33398438 C-27.01530355 22.15136285 -25.83365098 20.96843189 -24.65234375 19.78515625 C-24.09828354 19.23312027 -23.54422333 18.68108429 -22.97337341 18.11231995 C-20.1365848 15.32075247 -20.1365848 15.32075247 -18 12 C-18.804375 11.855625 -19.60875 11.71125 -20.4375 11.5625 C-23 11 -23 11 -24 10 C-24.04080783 8.00041636 -24.04254356 5.99954746 -24 4 C-16.18832273 1.06369578 -8.39623776 -0.61435886 0 0 Z " fill="#101331" transform="translate(138,20)"/>
<path d="M0 0 C0 27.06 0 54.12 0 82 C-13.80821918 83.7260274 -13.80821918 83.7260274 -20 82 C-21.28398905 70.19924479 -21.22020469 58.36029842 -21.24023438 46.50439453 C-21.25005416 42.98056414 -21.28120867 39.4572907 -21.3125 35.93359375 C-21.31902109 33.68489926 -21.32427505 31.43620065 -21.328125 29.1875 C-21.3404718 28.13852539 -21.3528186 27.08955078 -21.36553955 26.00878906 C-21.34425254 19.06665245 -20.39788882 15.63407486 -15.66015625 10.4296875 C-14.80292969 9.58664063 -13.94570312 8.74359375 -13.0625 7.875 C-12.20785156 7.02679688 -11.35320312 6.17859375 -10.47265625 5.3046875 C-4.78135593 0 -4.78135593 0 0 0 Z " fill="#111532" transform="translate(138,53)"/>
<path d="M0 0 C0.78744064 5.55274676 1.1482114 10.91938662 1.1328125 16.5234375 C1.13424759 17.70276352 1.13424759 17.70276352 1.13571167 18.90591431 C1.13638767 20.55804525 1.13457415 22.21017895 1.13037109 23.86230469 C1.12502909 26.36139028 1.1303285 28.860295 1.13671875 31.359375 C1.13969117 39.30820931 1.01343874 47.10161235 0 55 C-6.31092903 57.10364301 -13.53843512 56.23732093 -20 55 C-22.76916334 52.23083666 -21.41323513 42.87684582 -21.45996094 38.9831543 C-21.4864611 37.29829313 -21.52726848 35.61359078 -21.58300781 33.92944336 C-22.09930712 18.14343639 -22.09930712 18.14343639 -17.69921875 13.0859375 C-16.49550328 12.02308749 -15.26205613 10.9928723 -14 10 C-12.75818228 8.741526 -11.52738944 7.47198889 -10.3125 6.1875 C-3.99785959 0 -3.99785959 0 0 0 Z " fill="#124A3B" transform="translate(110,80)"/>
<path d="M0 0 C5.05252911 0.49163831 8.10308963 2.05654342 12.25 4.9375 C13.28640625 5.64777344 14.3228125 6.35804687 15.390625 7.08984375 C18 9 18 9 20 11 C20.18737649 13.64116113 20.25569866 16.1755398 20.23046875 18.81640625 C20.22978142 19.97389626 20.22978142 19.97389626 20.2290802 21.1547699 C20.22605787 22.78638242 20.21817213 24.41799205 20.20581055 26.04956055 C20.18754787 28.55593 20.18530088 31.06193033 20.18554688 33.56835938 C20.18063198 35.15104488 20.17480379 36.73372787 20.16796875 38.31640625 C20.16685593 39.07055313 20.1657431 39.82470001 20.16459656 40.60169983 C20.11605119 45.88394881 20.11605119 45.88394881 19 47 C12.63531457 47.4293637 6.29913426 46.89987632 0 46 C-1.52839661 44.47160339 -1.12715198 43.10087018 -1.12939453 40.97094727 C-1.13254669 40.11658585 -1.13569885 39.26222443 -1.13894653 38.38197327 C-1.1369223 37.45283615 -1.13489807 36.52369904 -1.1328125 35.56640625 C-1.13376923 34.61813461 -1.13472595 33.66986298 -1.13571167 32.69285583 C-1.13639363 30.68285048 -1.13453823 28.67284294 -1.13037109 26.6628418 C-1.12502896 23.5792141 -1.1303125 20.49573247 -1.13671875 17.41210938 C-1.13605786 15.46354134 -1.13477646 13.5149734 -1.1328125 11.56640625 C-1.13483673 10.63929337 -1.13686096 9.71218048 -1.13894653 8.75697327 C-1.13579437 7.89945969 -1.13264221 7.04194611 -1.12939453 6.15844727 C-1.12859894 5.40201431 -1.12780334 4.64558136 -1.12698364 3.8662262 C-1 2 -1 2 0 0 Z " fill="#11493A" transform="translate(62,89)"/>
<path d="M0 0 C0 12.21 0 24.42 0 37 C-4.41647014 37.63092431 -8.35637996 38.17553186 -12.75 38.25 C-13.67296875 38.27578125 -14.5959375 38.3015625 -15.546875 38.328125 C-18.51522752 37.93108422 -19.16066325 37.30313852 -21 35 C-22.63746835 28.73722036 -22.0152222 21.08339652 -20 15 C-15.97689953 8.52642001 -8.09240407 -2.02310102 0 0 Z " fill="#104638" transform="translate(54,98)"/>
<path d="M0 0 C0 1.98 0 3.96 0 6 C-0.66 4.68 -1.32 3.36 -2 2 C-2.556875 2.56847656 -3.11375 3.13695313 -3.6875 3.72265625 C-8.61511094 8.70853286 -13.65189019 13.46795054 -19 18 C-19 15 -19 15 -16.515625 12.1875 C-15.43471385 11.11723822 -14.34579328 10.05501957 -13.25 9 C-12.71117188 8.46632813 -12.17234375 7.93265625 -11.6171875 7.3828125 C-4.08745336 0 -4.08745336 0 0 0 Z " fill="#083B33" transform="translate(110,80)"/>
<path d="M0 0 C0.99 0.33 1.98 0.66 3 1 C2.195625 1.556875 1.39125 2.11375 0.5625 2.6875 C-3.24813204 6.36895808 -2.75205101 11.34048552 -2.95703125 16.33203125 C-2.97121094 17.21246094 -2.98539063 18.09289062 -3 19 C-3.33 19 -3.66 19 -4 19 C-4.10826289 16.5821288 -4.18739789 14.16912444 -4.25 11.75 C-4.28351562 11.06808594 -4.31703125 10.38617188 -4.3515625 9.68359375 C-4.4215705 6.07818187 -4.29151719 4.35931188 -1.984375 1.515625 C-1.32953125 1.01546875 -0.6746875 0.5153125 0 0 Z " fill="#0A4335" transform="translate(38,109)"/>
</svg>
